<svg id="Capa_1" enable-background="new 0 0 497 497" height="512" viewBox="0 0 497 497" width="512" xmlns="http://www.w3.org/2000/svg"><g><g><path d="m99.4 32.35h-33.133c-4.143 0-7.5-3.357-7.5-7.5s3.357-7.5 7.5-7.5h33.133c4.143 0 7.5 3.357 7.5 7.5s-3.357 7.5-7.5 7.5z" fill="#f2f6fc"/></g><g><path d="m430.733 32.35h-33.133c-4.143 0-7.5-3.357-7.5-7.5s3.357-7.5 7.5-7.5h33.134c4.143 0 7.5 3.357 7.5 7.5s-3.358 7.5-7.501 7.5z" fill="#f2f6fc"/></g><path d="m373.231.005c-13.93-.265-25.331 11.473-25.331 25.405v90.557c0 9.15-7.417 16.567-16.567 16.567h-49.7-66.267-49.7c-9.15 0-16.567-7.417-16.567-16.567v-90.557c0-13.932-11.401-25.669-25.331-25.405-13.501.256-24.368 11.281-24.368 24.845v91.117c0 34.666 26.755 63.199 60.701 66.035 3.134.262 5.566 2.836 5.566 5.981v258.663c0 18.579 15.204 34.137 33.779 33.782 18.001-.344 32.487-15.044 32.487-33.127v-132.534h33.133v131.879c0 18.579 15.204 34.137 33.779 33.782 18.001-.344 32.487-15.044 32.487-33.127v-259.318c0-3.145 2.432-5.719 5.566-5.981 33.945-2.836 60.701-31.37 60.701-66.035v-91.117c.001-13.564-10.866-24.589-24.368-24.845z" fill="#ffdaaa"/><g fill="#ffbe8a"><path d="m126.1 25.41v90.557c0 9.149 7.417 16.566 16.567 16.566h23c-9.15 0-16.567-7.417-16.567-16.566v-90.557c0-13.932-11.401-25.67-25.331-25.405-4.017.076-7.797 1.112-11.131 2.878 7.991 4.285 13.462 12.877 13.462 22.527z"/><path d="m373.231.005c-4.282-.081-8.323.975-11.869 2.878 7.872 4.17 13.239 12.439 13.239 21.968v91.117c0 34.665-26.755 63.199-60.701 66.035-3.134.262-5.566 2.836-5.566 5.981v259.316c0 14.212-8.95 26.329-21.518 31.035 3.743 1.42 7.798 2.173 12.031 2.092 18.001-.344 32.487-15.044 32.487-33.127v-259.317c0-3.145 2.432-5.719 5.566-5.981 33.945-2.836 60.701-31.369 60.701-66.035v-91.117c-.001-13.564-10.868-24.589-24.37-24.845z"/><path d="m208.933 447.3c0 14.212-8.949 26.329-21.518 31.035 3.743 1.42 7.798 2.173 12.031 2.092 18.001-.344 32.487-15.044 32.487-33.127v-132.533h-23z"/></g><circle cx="248.5" cy="82.833" fill="#ffdaaa" r="49.7"/><circle cx="248.5" cy="82.833" fill="#ffdaaa" r="49.7"/><path d="m248.5 33.133c-3.96 0-7.807.477-11.5 1.352 21.901 5.191 38.2 24.86 38.2 48.348s-16.299 43.157-38.2 48.348c3.693.875 7.54 1.352 11.5 1.352 27.448 0 49.7-22.252 49.7-49.7s-22.252-49.7-49.7-49.7z" fill="#ffbe8a"/><g><path d="m149.1 73.767h-49.7c-4.143 0-7.5-3.357-7.5-7.5s3.357-7.5 7.5-7.5h49.7c4.143 0 7.5 3.357 7.5 7.5s-3.358 7.5-7.5 7.5z" fill="#19cffc"/></g><g><path d="m397.6 73.767h-49.7c-4.143 0-7.5-3.357-7.5-7.5s3.357-7.5 7.5-7.5h49.7c4.143 0 7.5 3.357 7.5 7.5s-3.358 7.5-7.5 7.5z" fill="#19cffc"/></g><path d="m165.667 265.067h165.667v-49.7c-27.449 0-49.7-22.251-49.7-49.7v-33.133h-66.267v33.133c0 27.449-22.251 49.7-49.7 49.7z" fill="#f2f6fc"/><path d="m231.933 347.9h-66.266v-82.833h165.666v82.833h-66.266v-33.133h-33.134z" fill="#19cffc"/><g><path d="m364.467 32.35h-231.934c-4.143 0-7.5-3.357-7.5-7.5s3.357-7.5 7.5-7.5h231.934c4.143 0 7.5 3.357 7.5 7.5s-3.358 7.5-7.5 7.5z" fill="#f2f6fc"/></g><path d="m430.733 468.867h33.133v-462.867c0-3.314-2.686-6-6-6h-21.133c-3.314 0-6 2.686-6 6z" fill="#cdd2e1"/><path d="m173.95 182.233h-12.624c2.52.739 4.34 3.029 4.34 5.749v9.251h8.283c4.143 0 7.5-3.357 7.5-7.5.001-4.142-3.356-7.5-7.499-7.5z" fill="#ffbe8a"/><g><path d="m281.634 322.267h-66.268c-4.143 0-7.5-3.357-7.5-7.5s3.357-7.5 7.5-7.5h66.268c4.143 0 7.5 3.357 7.5 7.5s-3.358 7.5-7.5 7.5z" fill="#27ade2"/></g><path d="m308.333 265.067h23v-49.7c-8.302 0-16.121-2.046-23-5.645z" fill="#cdd2e1"/><path d="m308.333 265.067h23v82.833h-23z" fill="#27ade2"/><path d="m231.933 447.3v-33.133h-66.267v32.479c0 18.579 15.204 34.137 33.779 33.782 18.002-.345 32.488-15.045 32.488-33.128z" fill="#9ca1af"/><path d="m265.067 446.646c0 18.579 15.204 34.137 33.779 33.782 18.001-.344 32.487-15.044 32.487-33.127v-33.133h-66.267v32.478z" fill="#9ca1af"/><path d="m208.933 447.3c0 14.212-8.949 26.329-21.518 31.035.441.167.887.323 1.336.472.044.015.088.03.132.044.415.135.835.261 1.257.38.09.025.179.05.269.074.388.106.779.204 1.173.295.135.031.271.061.406.09.359.079.72.152 1.083.219.183.033.367.062.551.092.327.054.654.106.984.15.236.031.474.055.712.081.287.031.574.065.863.089.312.025.627.04.942.057.224.012.447.029.672.037.547.017 1.096.023 1.65.012 18.001-.344 32.487-15.044 32.487-33.127v-33.133h-23v33.133z" fill="#717891"/><path d="m308.333 447.3c0 14.212-8.95 26.329-21.518 31.035.441.167.887.324 1.337.472.044.014.087.029.131.044.415.135.835.261 1.257.38.09.025.179.05.269.074.388.106.78.204 1.173.295.135.031.271.061.406.09.359.079.72.152 1.083.219.183.033.367.062.551.092.327.054.654.106.984.15.236.031.474.055.712.081.287.031.574.065.863.089.312.025.627.04.942.057.224.012.447.029.672.037.547.017 1.097.023 1.65.012 18.001-.344 32.487-15.044 32.487-33.127v-33.133h-23v33.133z" fill="#717891"/><path d="m474.433 497h-54.267c-3.314 0-6-2.686-6-6v-21.133c0-3.314 2.686-6 6-6h54.267c3.314 0 6 2.686 6 6v21.133c0 3.314-2.686 6-6 6z" fill="#ffda45"/><path d="m474.433 463.867h-23c3.314 0 6 2.686 6 6v27.133h17c3.314 0 6-2.686 6-6v-21.133c0-3.314-2.686-6-6-6z" fill="#ffae4d"/><path d="m33.133 468.867h33.133v-462.867c0-3.314-2.686-6-6-6h-21.133c-3.314 0-6 2.686-6 6z" fill="#cdd2e1"/><path d="m76.833 497h-54.266c-3.314 0-6-2.686-6-6v-21.133c0-3.314 2.686-6 6-6h54.267c3.314 0 6 2.686 6 6v21.133c-.001 3.314-2.687 6-6.001 6z" fill="#ffda45"/><path d="m76.833 463.867h-23c3.314 0 6 2.686 6 6v27.133h17c3.314 0 6-2.686 6-6v-21.133c0-3.314-2.686-6-6-6z" fill="#ffae4d"/></g></svg>